#N canvas 827 239 527 327 12;
#X obj 99 19 adc~;
#X obj 99 59 delwrite~ Grain 1000;
#X obj 19 19 loadbang;
#X obj 19 139 dac~;
#X obj 19 59 int 0;
#X obj 19 99 Subpatch 0 1 500 500;
#X connect 0 0 1 0 empty;
#X connect 2 0 4 0 empty;
#X connect 4 0 5 0 empty;
#X connect 5 0 3 0 empty;
#X connect 5 0 3 1 empty;
