#N canvas 827 239 527 327 12;
#X obj 59 299 line, f 31;
#X obj 59 139 sel 1 0, f 31;
#X msg 59 259 0 \, 1 \$1 0.01;
#X msg 159 259 1 \, 0 \$1 0.01;
#X obj 59 419 *~, f 34;
#X obj 59 19 inlet;
#X obj 59 499 outlet~;
#X obj 59 359 sig~;
#X obj 299 379 delread~ Grain 0;
#X obj 59 99 == \$1, f 17;
#X obj 299 339 * \$2, f 11;
#X obj 299 279 int 1000;
#X obj 59 219 i \$3;
#X obj 159 219 i \$4;
#X connect 0 0 7 0 empty;
#X connect 1 0 12 0 empty;
#X connect 1 1 13 0 empty;
#X connect 2 0 0 0 empty;
#X connect 3 0 0 0 empty;
#X connect 4 0 6 0 empty;
#X connect 5 0 9 0 empty;
#X connect 7 0 4 0 empty;
#X connect 8 0 4 1 empty;
#X connect 9 0 1 0 empty;
#X connect 10 0 8 0 empty;
#X connect 11 0 10 0 empty;
#X connect 12 0 2 0 empty;
#X connect 13 0 3 0 empty;
