#N canvas 827 239 527 327 12;
#X obj 39 279 mod 10;
#X obj 39 139 metro 100;
#X obj 39 210 i 0;
#X obj 39 239 + 1;
#X obj 39 179 +;
#X obj 139 139 / 5;
#X obj 219 139 / 2;
#X obj 139 179 s attack;
#X obj 219 179 s release;
#X obj 379 19 adc~;
#X obj 279 139 s PulseTime;
#X obj 379 99 delwrite~ Grain 1000;
#N canvas 0 22 450 300 grain_play 1;
#X obj 19 319 line, f 31;
#X obj 19 159 sel 1 0, f 31;
#X msg 19 279 0 \, 1 \$1 0.01;
#X msg 119 279 1 \, 0 \$1 0.01;
#X obj 19 239 i;
#X obj 119 239 i;
#X obj 39 199 r attack;
#X obj 139 199 r release;
#X obj 239 399 delread~ Grain;
#X obj 19 439 *~, f 34;
#X obj 19 99 ==, f 17;
#X obj 19 19 inlet;
#X obj 99 19 inlet;
#X obj 239 359 inlet;
#X obj 19 519 outlet~;
#X obj 19 379 sig~;
#X connect 0 0 15 0 empty;
#X connect 1 0 4 0 empty;
#X connect 1 1 5 0 empty;
#X connect 2 0 0 0 empty;
#X connect 3 0 0 0 empty;
#X connect 4 0 2 0 empty;
#X connect 5 0 3 0 empty;
#X connect 6 0 4 1 empty;
#X connect 7 0 5 1 empty;
#X connect 8 0 9 1 empty;
#X connect 9 0 14 0 empty;
#X connect 10 0 1 0 empty;
#X connect 11 0 10 0 empty;
#X connect 12 0 10 1 empty;
#X connect 13 0 8 0 empty;
#X connect 15 0 9 0 empty;
#X restore 39 519 pd grain_play;
#X f 23;
#X obj 179 439 r PulseTime;
#X obj 179 479 * 0.1;
#X obj 579 19 loadbang;
#X obj 579 59 s init_value;
#X obj 99 439 r init_value;
#X obj 99 479 i 0;
#X obj 39 319 s Count;
#X obj 39 439 r Count;
#N canvas 0 22 450 300 grain_play 1;
#X obj 19 319 line, f 31;
#X obj 19 159 sel 1 0, f 31;
#X msg 19 279 0 \, 1 \$1 0.01;
#X msg 119 279 1 \, 0 \$1 0.01;
#X obj 19 239 i;
#X obj 119 239 i;
#X obj 39 199 r attack;
#X obj 139 199 r release;
#X obj 239 399 delread~ Grain;
#X obj 19 439 *~, f 34;
#X obj 19 99 ==, f 17;
#X obj 19 19 inlet;
#X obj 99 19 inlet;
#X obj 239 359 inlet;
#X obj 19 519 outlet~;
#X obj 19 379 sig~;
#X connect 0 0 15 0 empty;
#X connect 1 0 4 0 empty;
#X connect 1 1 5 0 empty;
#X connect 2 0 0 0 empty;
#X connect 3 0 0 0 empty;
#X connect 4 0 2 0 empty;
#X connect 5 0 3 0 empty;
#X connect 6 0 4 1 empty;
#X connect 7 0 5 1 empty;
#X connect 8 0 9 1 empty;
#X connect 9 0 14 0 empty;
#X connect 10 0 1 0 empty;
#X connect 11 0 10 0 empty;
#X connect 12 0 10 1 empty;
#X connect 13 0 8 0 empty;
#X connect 15 0 9 0 empty;
#X restore 279 519 pd grain_play;
#X f 23;
#X obj 419 439 r PulseTime;
#X obj 339 439 r init_value;
#X obj 279 439 r Count;
#N canvas 0 22 450 300 grain_play 1;
#X obj 19 319 line, f 31;
#X obj 19 159 sel 1 0, f 31;
#X msg 19 279 0 \, 1 \$1 0.01;
#X msg 119 279 1 \, 0 \$1 0.01;
#X obj 19 239 i;
#X obj 119 239 i;
#X obj 39 199 r attack;
#X obj 139 199 r release;
#X obj 239 399 delread~ Grain;
#X obj 19 439 *~, f 34;
#X obj 19 99 ==, f 17;
#X obj 19 19 inlet;
#X obj 99 19 inlet;
#X obj 239 359 inlet;
#X obj 19 519 outlet~;
#X obj 19 379 sig~;
#X connect 0 0 15 0 empty;
#X connect 1 0 4 0 empty;
#X connect 1 1 5 0 empty;
#X connect 2 0 0 0 empty;
#X connect 3 0 0 0 empty;
#X connect 4 0 2 0 empty;
#X connect 5 0 3 0 empty;
#X connect 6 0 4 1 empty;
#X connect 7 0 5 1 empty;
#X connect 8 0 9 1 empty;
#X connect 9 0 14 0 empty;
#X connect 10 0 1 0 empty;
#X connect 11 0 10 0 empty;
#X connect 12 0 10 1 empty;
#X connect 13 0 8 0 empty;
#X connect 15 0 9 0 empty;
#X restore 519 519 pd grain_play;
#X f 23;
#X obj 659 439 r PulseTime;
#X obj 579 439 r init_value;
#X obj 519 439 r Count;
#N canvas 0 22 450 300 grain_play 1;
#X obj 19 319 line, f 31;
#X obj 19 159 sel 1 0, f 31;
#X msg 19 279 0 \, 1 \$1 0.01;
#X msg 119 279 1 \, 0 \$1 0.01;
#X obj 19 239 i;
#X obj 119 239 i;
#X obj 39 199 r attack;
#X obj 139 199 r release;
#X obj 239 399 delread~ Grain;
#X obj 19 439 *~, f 34;
#X obj 19 99 ==, f 17;
#X obj 19 19 inlet;
#X obj 99 19 inlet;
#X obj 239 359 inlet;
#X obj 19 519 outlet~;
#X obj 19 379 sig~;
#X connect 0 0 15 0 empty;
#X connect 1 0 4 0 empty;
#X connect 1 1 5 0 empty;
#X connect 2 0 0 0 empty;
#X connect 3 0 0 0 empty;
#X connect 4 0 2 0 empty;
#X connect 5 0 3 0 empty;
#X connect 6 0 4 1 empty;
#X connect 7 0 5 1 empty;
#X connect 8 0 9 1 empty;
#X connect 9 0 14 0 empty;
#X connect 10 0 1 0 empty;
#X connect 11 0 10 0 empty;
#X connect 12 0 10 1 empty;
#X connect 13 0 8 0 empty;
#X connect 15 0 9 0 empty;
#X restore 759 519 pd grain_play;
#X f 23;
#X obj 899 439 r PulseTime;
#X obj 819 439 r init_value;
#X obj 759 439 r Count;
#N canvas 0 22 450 300 grain_play 1;
#X obj 19 319 line, f 31;
#X obj 19 159 sel 1 0, f 31;
#X msg 19 279 0 \, 1 \$1 0.01;
#X msg 119 279 1 \, 0 \$1 0.01;
#X obj 19 239 i;
#X obj 119 239 i;
#X obj 39 199 r attack;
#X obj 139 199 r release;
#X obj 239 399 delread~ Grain;
#X obj 19 439 *~, f 34;
#X obj 19 99 ==, f 17;
#X obj 19 19 inlet;
#X obj 99 19 inlet;
#X obj 239 359 inlet;
#X obj 19 519 outlet~;
#X obj 19 379 sig~;
#X connect 0 0 15 0 empty;
#X connect 1 0 4 0 empty;
#X connect 1 1 5 0 empty;
#X connect 2 0 0 0 empty;
#X connect 3 0 0 0 empty;
#X connect 4 0 2 0 empty;
#X connect 5 0 3 0 empty;
#X connect 6 0 4 1 empty;
#X connect 7 0 5 1 empty;
#X connect 8 0 9 1 empty;
#X connect 9 0 14 0 empty;
#X connect 10 0 1 0 empty;
#X connect 11 0 10 0 empty;
#X connect 12 0 10 1 empty;
#X connect 13 0 8 0 empty;
#X connect 15 0 9 0 empty;
#X restore 1019 519 pd grain_play;
#X f 23;
#X obj 1159 439 r PulseTime;
#X obj 1079 439 r init_value;
#X obj 1019 439 r Count;
#X obj 339 479 i 1;
#X obj 579 479 i 2;
#X obj 819 479 i 3;
#X obj 1079 479 i 4;
#X obj 39 559 +~, f 37;
#X obj 519 559 +~, f 37;
#X obj 39 599 +~, f 71;
#X obj 39 639 +~, f 143;
#N canvas 0 22 450 300 grain_play 1;
#X obj 19 319 line, f 31;
#X obj 19 159 sel 1 0, f 31;
#X msg 19 279 0 \, 1 \$1 0.01;
#X msg 119 279 1 \, 0 \$1 0.01;
#X obj 19 239 i;
#X obj 119 239 i;
#X obj 39 199 r attack;
#X obj 139 199 r release;
#X obj 239 399 delread~ Grain;
#X obj 19 439 *~, f 34;
#X obj 19 99 ==, f 17;
#X obj 19 19 inlet;
#X obj 99 19 inlet;
#X obj 239 359 inlet;
#X obj 19 519 outlet~;
#X obj 19 379 sig~;
#X connect 0 0 15 0 empty;
#X connect 1 0 4 0 empty;
#X connect 1 1 5 0 empty;
#X connect 2 0 0 0 empty;
#X connect 3 0 0 0 empty;
#X connect 4 0 2 0 empty;
#X connect 5 0 3 0 empty;
#X connect 6 0 4 1 empty;
#X connect 7 0 5 1 empty;
#X connect 8 0 9 1 empty;
#X connect 9 0 14 0 empty;
#X connect 10 0 1 0 empty;
#X connect 11 0 10 0 empty;
#X connect 12 0 10 1 empty;
#X connect 13 0 8 0 empty;
#X connect 15 0 9 0 empty;
#X restore 159 779 pd grain_play;
#X f 23;
#X obj 299 699 r PulseTime;
#X obj 219 699 r init_value;
#X obj 159 699 r Count;
#N canvas 0 22 450 300 grain_play 1;
#X obj 19 319 line, f 31;
#X obj 19 159 sel 1 0, f 31;
#X msg 19 279 0 \, 1 \$1 0.01;
#X msg 119 279 1 \, 0 \$1 0.01;
#X obj 19 239 i;
#X obj 119 239 i;
#X obj 39 199 r attack;
#X obj 139 199 r release;
#X obj 239 399 delread~ Grain;
#X obj 19 439 *~, f 34;
#X obj 19 99 ==, f 17;
#X obj 19 19 inlet;
#X obj 99 19 inlet;
#X obj 239 359 inlet;
#X obj 19 519 outlet~;
#X obj 19 379 sig~;
#X connect 0 0 15 0 empty;
#X connect 1 0 4 0 empty;
#X connect 1 1 5 0 empty;
#X connect 2 0 0 0 empty;
#X connect 3 0 0 0 empty;
#X connect 4 0 2 0 empty;
#X connect 5 0 3 0 empty;
#X connect 6 0 4 1 empty;
#X connect 7 0 5 1 empty;
#X connect 8 0 9 1 empty;
#X connect 9 0 14 0 empty;
#X connect 10 0 1 0 empty;
#X connect 11 0 10 0 empty;
#X connect 12 0 10 1 empty;
#X connect 13 0 8 0 empty;
#X connect 15 0 9 0 empty;
#X restore 399 779 pd grain_play;
#X f 23;
#X obj 539 699 r PulseTime;
#X obj 459 699 r init_value;
#X obj 399 699 r Count;
#N canvas 0 22 450 300 grain_play 1;
#X obj 19 319 line, f 31;
#X obj 19 159 sel 1 0, f 31;
#X msg 19 279 0 \, 1 \$1 0.01;
#X msg 119 279 1 \, 0 \$1 0.01;
#X obj 19 239 i;
#X obj 119 239 i;
#X obj 39 199 r attack;
#X obj 139 199 r release;
#X obj 239 399 delread~ Grain;
#X obj 19 439 *~, f 34;
#X obj 19 99 ==, f 17;
#X obj 19 19 inlet;
#X obj 99 19 inlet;
#X obj 239 359 inlet;
#X obj 19 519 outlet~;
#X obj 19 379 sig~;
#X connect 0 0 15 0 empty;
#X connect 1 0 4 0 empty;
#X connect 1 1 5 0 empty;
#X connect 2 0 0 0 empty;
#X connect 3 0 0 0 empty;
#X connect 4 0 2 0 empty;
#X connect 5 0 3 0 empty;
#X connect 6 0 4 1 empty;
#X connect 7 0 5 1 empty;
#X connect 8 0 9 1 empty;
#X connect 9 0 14 0 empty;
#X connect 10 0 1 0 empty;
#X connect 11 0 10 0 empty;
#X connect 12 0 10 1 empty;
#X connect 13 0 8 0 empty;
#X connect 15 0 9 0 empty;
#X restore 639 779 pd grain_play;
#X f 23;
#X obj 779 699 r PulseTime;
#X obj 699 699 r init_value;
#X obj 639 699 r Count;
#N canvas 0 22 450 300 grain_play 1;
#X obj 19 319 line, f 31;
#X obj 19 159 sel 1 0, f 31;
#X msg 19 279 0 \, 1 \$1 0.01;
#X msg 119 279 1 \, 0 \$1 0.01;
#X obj 19 239 i;
#X obj 119 239 i;
#X obj 39 199 r attack;
#X obj 139 199 r release;
#X obj 239 399 delread~ Grain;
#X obj 19 439 *~, f 34;
#X obj 19 99 ==, f 17;
#X obj 19 19 inlet;
#X obj 99 19 inlet;
#X obj 239 359 inlet;
#X obj 19 519 outlet~;
#X obj 19 379 sig~;
#X connect 0 0 15 0 empty;
#X connect 1 0 4 0 empty;
#X connect 1 1 5 0 empty;
#X connect 2 0 0 0 empty;
#X connect 3 0 0 0 empty;
#X connect 4 0 2 0 empty;
#X connect 5 0 3 0 empty;
#X connect 6 0 4 1 empty;
#X connect 7 0 5 1 empty;
#X connect 8 0 9 1 empty;
#X connect 9 0 14 0 empty;
#X connect 10 0 1 0 empty;
#X connect 11 0 10 0 empty;
#X connect 12 0 10 1 empty;
#X connect 13 0 8 0 empty;
#X connect 15 0 9 0 empty;
#X restore 879 779 pd grain_play;
#X f 23;
#X obj 1019 699 r PulseTime;
#X obj 939 699 r init_value;
#X obj 879 699 r Count;
#N canvas 0 22 450 300 grain_play 1;
#X obj 19 319 line, f 31;
#X obj 19 159 sel 1 0, f 31;
#X msg 19 279 0 \, 1 \$1 0.01;
#X msg 119 279 1 \, 0 \$1 0.01;
#X obj 19 239 i;
#X obj 119 239 i;
#X obj 39 199 r attack;
#X obj 139 199 r release;
#X obj 239 399 delread~ Grain;
#X obj 19 439 *~, f 34;
#X obj 19 99 ==, f 17;
#X obj 19 19 inlet;
#X obj 99 19 inlet;
#X obj 239 359 inlet;
#X obj 19 519 outlet~;
#X obj 19 379 sig~;
#X connect 0 0 15 0 empty;
#X connect 1 0 4 0 empty;
#X connect 1 1 5 0 empty;
#X connect 2 0 0 0 empty;
#X connect 3 0 0 0 empty;
#X connect 4 0 2 0 empty;
#X connect 5 0 3 0 empty;
#X connect 6 0 4 1 empty;
#X connect 7 0 5 1 empty;
#X connect 8 0 9 1 empty;
#X connect 9 0 14 0 empty;
#X connect 10 0 1 0 empty;
#X connect 11 0 10 0 empty;
#X connect 12 0 10 1 empty;
#X connect 13 0 8 0 empty;
#X connect 15 0 9 0 empty;
#X restore 1139 779 pd grain_play;
#X f 23;
#X obj 1279 699 r PulseTime;
#X obj 1279 739 * 0.1;
#X obj 1199 699 r init_value;
#X obj 1139 699 r Count;
#X obj 159 819 +~, f 37;
#X obj 639 819 +~, f 37;
#X obj 159 859 +~, f 71;
#X obj 159 899 +~, f 143;
#X obj 219 739 i 5;
#X obj 459 739 i 6;
#X obj 699 739 i 7;
#X obj 939 739 i 8;
#X obj 1199 739 i 9;
#X obj 39 1039 dac~;
#X obj 39 959 +~, f 20;
#X obj 419 479 * 0.9;
#X obj 659 479 * 0.7;
#X obj 899 479 * 0.2;
#X obj 1159 479 * 0.4;
#X obj 299 739 * 0.3;
#X obj 539 739 * 0.5;
#X obj 779 739 * 0.8;
#X obj 1019 739 * 0.6;
#X obj 39 19 r init_value;
#X obj 39 99 i 1;
#X obj 79 99 i 150;
#X obj 39 54 t b b, f 8;
#X connect 0 0 19 0 empty;
#X connect 1 0 4 0 empty;
#X connect 2 0 3 0 empty;
#X connect 3 0 0 0 empty;
#X connect 3 0 4 1 48.................J....nB...fB....p....j5++++B....o9+++u....Pr++++;
#X connect 4 0 2 0 empty;
#X connect 5 0 7 0 empty;
#X connect 6 0 8 0 empty;
#X connect 9 0 11 0 empty;
#X connect 12 0 41 0 empty;
#X connect 13 0 14 0 empty;
#X connect 14 0 12 2 empty;
#X connect 15 0 16 0 empty;
#X connect 17 0 18 0 empty;
#X connect 18 0 12 1 empty;
#X connect 20 0 12 0 empty;
#X connect 21 0 41 1 empty;
#X connect 22 0 77 0 empty;
#X connect 23 0 37 0 empty;
#X connect 24 0 21 0 empty;
#X connect 25 0 42 0 empty;
#X connect 26 0 78 0 empty;
#X connect 27 0 38 0 empty;
#X connect 28 0 25 0 empty;
#X connect 29 0 42 1 empty;
#X connect 30 0 79 0 empty;
#X connect 31 0 39 0 empty;
#X connect 32 0 29 0 empty;
#X connect 33 0 44 1 empty;
#X connect 34 0 80 0 empty;
#X connect 35 0 40 0 empty;
#X connect 36 0 33 0 empty;
#X connect 37 0 21 1 empty;
#X connect 38 0 25 1 empty;
#X connect 39 0 29 1 empty;
#X connect 40 0 33 1 empty;
#X connect 41 0 43 0 empty;
#X connect 42 0 43 1 empty;
#X connect 43 0 44 0 empty;
#X connect 44 0 76 0 empty;
#X connect 45 0 66 0 empty;
#X connect 46 0 81 0 empty;
#X connect 47 0 70 0 empty;
#X connect 48 0 45 0 empty;
#X connect 49 0 66 1 empty;
#X connect 50 0 82 0 empty;
#X connect 51 0 71 0 empty;
#X connect 52 0 49 0 empty;
#X connect 53 0 67 0 empty;
#X connect 54 0 83 0 empty;
#X connect 55 0 72 0 empty;
#X connect 56 0 53 0 empty;
#X connect 57 0 67 1 empty;
#X connect 58 0 84 0 empty;
#X connect 59 0 73 0 empty;
#X connect 60 0 57 0 empty;
#X connect 61 0 69 1 empty;
#X connect 62 0 63 0 empty;
#X connect 63 0 61 2 empty;
#X connect 64 0 74 0 empty;
#X connect 65 0 61 0 empty;
#X connect 66 0 68 0 empty;
#X connect 67 0 68 1 empty;
#X connect 68 0 69 0 empty;
#X connect 69 0 76 1 empty;
#X connect 70 0 45 1 empty;
#X connect 71 0 49 1 empty;
#X connect 72 0 53 1 empty;
#X connect 73 0 57 1 empty;
#X connect 74 0 61 1 empty;
#X connect 76 0 75 0 empty;
#X connect 76 0 75 1 empty;
#X connect 77 0 21 2 empty;
#X connect 78 0 25 2 empty;
#X connect 79 0 29 2 empty;
#X connect 80 0 33 2 empty;
#X connect 81 0 45 2 empty;
#X connect 82 0 49 2 empty;
#X connect 83 0 53 2 empty;
#X connect 84 0 57 2 empty;
#X connect 85 0 88 0 empty;
#X connect 86 0 1 0 empty;
#X connect 87 0 1 1 empty;
#X connect 87 0 5 0 empty;
#X connect 87 0 6 0 empty;
#X connect 87 0 10 0 empty;
#X connect 88 0 86 0 empty;
#X connect 88 1 87 0 empty;
