#N canvas 827 239 527 327 12;
#X obj 39 279 mod 10;
#X obj 39 139 metro 100;
#X obj 39 210 i 0;
#X obj 39 239 + 1;
#X obj 39 179 +;
#X obj 139 139 / 5;
#X obj 219 139 / 2;
#X obj 139 179 s attack;
#X obj 219 179 s release;
#X obj 379 19 adc~;
#X obj 279 139 s PulseTime;
#X obj 379 99 delwrite~ Grain 1000;
#X obj 579 19 loadbang;
#X obj 579 59 s init_value;
#X obj 39 319 s Count;
#X obj 39 439 r Count;
#X obj 39 559 +~, f 20;
#X obj 39 779 dac~;
#X obj 39 19 r init_value;
#X obj 39 99 i 1;
#X obj 79 99 i 150;
#X obj 39 54 t b b, f 8;
#X obj 259 559 +~, f 20;
#X obj 483 559 +~, f 20;
#X obj 703 559 +~, f 20;
#X obj 939 559 +~, f 20;
#X obj 39 599 +~, f 34;
#X obj 479 599 +~, f 34;
#X obj 39 639 +~, f 66;
#X obj 39 679 +~, f 131;
#X msg 99 399 0.1 0.3 0.4 0.7 0.9 0.2 0.8 0.5 0.2;
#X obj 99 439 unpack f f f f f f f f f f, f 148;
#X obj 99 359 r init_value;
#X obj 39 519 Play_grain 0;
#X obj 159 519 Play_grain 1;
#X obj 259 519 Play_grain 2;
#X obj 379 519 Play_grain 3;
#X obj 483 519 Play_grain 4;
#X obj 603 519 Play_grain 5;
#X obj 703 519 Play_grain 6;
#X obj 823 519 Play_grain 7;
#X obj 939 519 Play_grain 8;
#X obj 1059 519 Play_grain 9;
#X obj 779 19 bng 25 250 50 0 empty empty empty 17 7 0 10 #191919 #ffffff #ffffff;
#X obj 39 719 clip~ -1 1;
#X connect 0 0 14 0 empty;
#X connect 1 0 4 0 empty;
#X connect 2 0 3 0 empty;
#X connect 3 0 0 0 empty;
#X connect 3 0 4 1 48.................J....nB...fB....p....j5++++B....o9+++u....Pr++++;
#X connect 4 0 2 0 empty;
#X connect 5 0 7 0 empty;
#X connect 6 0 8 0 empty;
#X connect 9 0 11 0 empty;
#X connect 12 0 13 0 empty;
#X connect 15 0 33 0 empty;
#X connect 15 0 34 0 32.................T....fG....E....3A...vC....;
#X connect 15 0 35 0 32.................d....vM...fG....bC...vC....;
#X connect 15 0 36 0 32.................d....PU...fG....TE...vC....;
#X connect 15 0 37 0 32.................T....va....E....7F...vC....;
#X connect 15 0 38 0 32.................T....Pi....E....zH...vC....;
#X connect 15 0 39 0 32.................d....fo...fG....XJ...vC....;
#X connect 15 0 40 0 32.................d.....w...fG....PL...vC....;
#X connect 15 0 41 0 32.................T....P3....E....DN...vC....;
#X connect 15 0 42 0 32.................T....v+....E....7O...vC....;
#X connect 16 0 26 0 empty;
#X connect 18 0 21 0 empty;
#X connect 19 0 1 0 empty;
#X connect 20 0 1 1 empty;
#X connect 20 0 5 0 empty;
#X connect 20 0 6 0 empty;
#X connect 20 0 10 0 empty;
#X connect 21 0 19 0 empty;
#X connect 21 1 20 0 empty;
#X connect 22 0 26 1 empty;
#X connect 23 0 27 0 empty;
#X connect 24 0 27 1 empty;
#X connect 25 0 29 1 empty;
#X connect 26 0 28 0 empty;
#X connect 27 0 28 1 empty;
#X connect 28 0 29 0 empty;
#X connect 29 0 44 0 empty;
#X connect 30 0 31 0 empty;
#X connect 31 0 33 1 empty;
#X connect 31 1 34 1 empty;
#X connect 31 2 35 1 empty;
#X connect 31 3 36 1 empty;
#X connect 31 4 37 1 empty;
#X connect 31 5 38 1 empty;
#X connect 31 6 39 1 empty;
#X connect 31 7 40 1 empty;
#X connect 31 8 41 1 empty;
#X connect 31 9 42 1 empty;
#X connect 32 0 30 0 empty;
#X connect 33 0 16 0 empty;
#X connect 34 0 16 1 empty;
#X connect 35 0 22 0 empty;
#X connect 36 0 22 1 empty;
#X connect 37 0 23 0 empty;
#X connect 38 0 23 1 empty;
#X connect 39 0 24 0 empty;
#X connect 40 0 24 1 empty;
#X connect 41 0 25 0 empty;
#X connect 42 0 25 1 empty;
#X connect 43 0 13 0 empty;
#X connect 44 0 17 0 empty;
#X connect 44 0 17 1 empty;
