#N canvas 827 239 527 327 12;
#X obj 259 19 adc~;
#X obj 259 99 delwrite~ Grain 1000;
#X obj 59 39 loadbang;
#X obj 59 199 dac~;
#X obj 59 119 int 0;
#X obj 119 119 int 1;
#X obj 179 119 int 500;
#X obj 174 153 send attack;
#X obj 262 153 send release;
#X obj 59 79 t b b b, f 20;
#X obj 59 159 Subpatch 0;
#X connect 0 0 1 0 empty;
#X connect 2 0 9 0 empty;
#X connect 4 0 10 0 empty;
#X connect 5 0 10 1 empty;
#X connect 6 0 7 0 empty;
#X connect 6 0 8 0 empty;
#X connect 9 0 4 0 empty;
#X connect 9 1 5 0 empty;
#X connect 9 2 6 0 empty;
#X connect 10 0 3 0 empty;
#X connect 10 0 3 1 empty;
