#N canvas 827 239 527 327 12;
#X obj 59 299 line, f 31;
#X obj 59 139 sel 1 0, f 31;
#X msg 59 259 0 \, 1 \$1 0.01;
#X msg 159 259 1 \, 0 \$1 0.01;
#X obj 59 219 i;
#X obj 159 219 i;
#X obj 79 179 r attack;
#X obj 179 179 r release;
#X obj 59 419 *~, f 34;
#X obj 59 19 inlet;
#X obj 299 299 inlet;
#X obj 59 499 outlet~;
#X obj 59 359 sig~;
#X obj 299 379 delread~ Grain 0;
#X obj 59 99 == \$1, f 17;
#X obj 359 299 r PulseTime;
#X obj 299 339 *, f 11;
#X connect 0 0 12 0 empty;
#X connect 1 0 4 0 empty;
#X connect 1 1 5 0 empty;
#X connect 2 0 0 0 empty;
#X connect 3 0 0 0 empty;
#X connect 4 0 2 0 empty;
#X connect 5 0 3 0 empty;
#X connect 6 0 4 1 empty;
#X connect 7 0 5 1 empty;
#X connect 8 0 11 0 empty;
#X connect 9 0 14 0 empty;
#X connect 10 0 16 0 empty;
#X connect 12 0 8 0 empty;
#X connect 13 0 8 1 empty;
#X connect 14 0 1 0 empty;
#X connect 15 0 16 1 empty;
#X connect 16 0 13 0 empty;
